<svg width="117" height="131" viewBox="0 0 117 131" fill="none" xmlns="http://www.w3.org/2000/svg">
<mask id="mask0_13_91" style="mask-type:alpha" maskUnits="userSpaceOnUse" x="0" y="0" width="117" height="131">
<rect y="1" width="115.882" height="129.045" transform="rotate(-0.376261 0 1)" fill="#D9D9D9"/>
</mask>
<g mask="url(#mask0_13_91)">
<path d="M63.4319 469.742C62.2532 483.623 71.6752 557.095 76.5374 585.903C78.8522 599.552 85.1994 621.788 82.9157 633.595C79.6548 650.05 78.7126 671.345 80.5078 683.745C81.64 691.274 85.2033 726.004 80.1046 738.706C77.437 745.367 72.5476 779.504 72.5476 779.504C59.8105 811.663 66.9991 810.081 66.9991 810.081C70.9424 814.92 77.6967 810.461 77.6967 810.461C82.842 813.741 86.4053 809.681 86.4053 809.681C90.8216 813.338 95.9707 809.232 95.9707 809.232C101.519 812.112 106.664 806.8 106.664 806.8C109.852 808.406 110.631 806.378 110.631 806.378C120.193 805.765 105.296 775.165 105.296 775.165C101.729 747.682 108.836 732.386 108.836 732.386C132.115 663.35 133.298 645.029 123.992 619.012C121.371 611.502 120.708 608.528 121.914 605.267C124.702 597.741 122.67 567.47 126.071 555.451C132.631 532.268 139.102 473.475 142.476 446.043C147.008 409.092 126.42 359.547 126.42 359.547C121.91 339.385 128.521 267.549 128.521 267.549C137.753 281.915 137.4 307.272 137.4 307.272C135.935 333.867 158.885 374.514 158.885 374.514C169.912 391.31 174.088 407.246 174.088 408.429C174.088 413.268 173.029 424.981 173.029 424.981L173.452 435.183C173.642 437.78 175.104 446.726 174.867 451.049C173.146 477.655 177.372 472.65 177.372 472.65C180.939 472.65 184.859 451.239 184.859 451.239C184.859 456.76 183.51 473.289 186.488 479.524C190.051 486.961 192.672 478.249 192.719 476.5C193.661 442.623 195.696 451.499 195.696 451.499C197.678 478.981 200.113 485.189 204.479 483.041C207.786 481.463 204.762 450.06 204.762 450.06C210.427 468.714 214.723 471.684 214.723 471.684C224.071 478.248 218.29 460.118 216.991 456.528C210.074 437.451 209.86 430.84 209.86 430.84C218.503 447.982 225.017 447.346 225.017 447.346C233.446 444.655 217.65 420.383 208.395 408.755C203.672 402.83 197.581 394.897 195.813 390.186C192.932 382.206 190.757 356.554 190.757 356.554C189.884 326.283 182.401 313.135 182.401 313.135C169.606 292.655 167.198 254.451 167.198 254.451C167.198 254.451 166.853 215.14 166.632 189.951C162.146 145.955 129.727 145.637 129.727 145.637C96.9595 140.759 92.3997 130.174 92.3997 130.174C85.4592 120.186 89.4258 101.04 89.4258 101.04C95.1836 96.3557 97.4054 83.921 97.4054 83.921C106.967 76.589 106.498 65.8603 102.081 65.9766C98.5376 66.0697 99.3402 63.1345 99.3402 63.1345C105.319 14.8381 62.4432 12.3721 62.4432 12.3721H55.8982C55.8982 12.3721 13.003 14.8381 18.9742 63.1229C18.9742 63.1229 19.7768 66.0619 16.2018 65.965C11.7971 65.8487 11.3862 76.5773 20.9128 83.9094C20.9128 83.9094 23.1307 96.3402 28.8924 101.028C28.8924 101.028 32.8589 120.174 25.9185 130.162C25.9185 130.162 21.3742 140.748 -11.4088 145.625C-11.4088 145.625 -43.8817 145.943 -48.298 189.94L-48.9106 254.44C-48.9106 254.44 -51.2719 292.643 -64.1176 313.123C-64.1176 313.123 -71.5661 326.275 -72.4268 356.542C-72.4268 356.542 -74.6098 382.195 -77.479 390.174C-79.2277 394.862 -85.3152 402.795 -90.0766 408.743C-99.4132 420.348 -115.105 444.57 -106.71 447.334C-106.71 447.334 -100.162 447.97 -91.5538 430.828C-91.5538 430.828 -91.7322 437.393 -98.6378 456.516C-99.9949 460.06 -105.768 478.19 -96.416 471.672C-96.416 471.672 -92.085 468.699 -86.4551 450.048C-86.4551 450.048 -89.4756 481.451 -86.1139 483.029C-81.7209 485.181 -79.3247 478.97 -77.3433 451.487C-77.3433 451.487 -75.3116 442.612 -74.3694 476.488C-74.3229 478.237 -71.7599 486.949 -68.1811 479.513C-65.1607 473.278 -66.5177 456.776 -66.5177 451.227C-66.5177 451.227 -62.6443 472.638 -59.0228 472.638C-59.0228 472.638 -54.7616 477.644 -56.5103 451.037C-56.7933 446.691 -55.2695 437.769 -55.0795 435.171L-54.6685 424.97C-54.6685 424.97 -55.7309 413.283 -55.7309 408.417C-55.7309 407.211 -51.5511 391.299 -40.5278 374.502C-40.5278 374.502 -17.601 333.836 -19.0782 307.261C-19.0782 307.261 -19.3962 281.903 -10.1642 267.537C-10.1642 267.537 -3.61146 339.369 -8.05103 359.535C-8.05103 359.535 -28.6747 409.08 -24.1266 446.032C-20.7765 473.538 -14.3169 532.252 -7.74087 555.439C-4.30553 567.436 -6.33724 597.698 -3.58431 605.255C-2.34356 608.539 -2.99497 611.564 -5.66259 619.001C-14.9178 645.018 -13.7391 663.342 9.54053 732.374C9.54053 732.374 16.7059 747.671 13.0844 775.153C13.0844 775.153 -1.7891 805.754 7.73757 806.366C7.73757 806.366 8.48203 808.394 11.7041 806.789C11.7041 806.789 16.8493 812.101 22.4095 809.22C22.4095 809.22 27.5586 813.33 31.9594 809.67C31.9594 809.67 35.4878 813.729 40.6331 810.449C40.6331 810.449 47.3874 815.005 51.4005 810.069C51.4005 810.069 58.5309 811.651 45.8365 779.492C45.8365 779.492 40.9743 745.399 38.295 738.695C33.1847 725.996 36.7945 691.193 37.884 683.733C39.6405 671.263 38.6983 650.019 35.4878 633.583C33.1381 621.804 39.5009 599.563 41.8506 585.892C46.6779 557.11 56.1386 483.634 54.956 469.73L58.8644 471.103C61.6639 471.11 63.4319 469.742 63.4319 469.742Z" fill="white"/>
</g>
</svg>
