<svg width="156" height="330" viewBox="0 0 156 330" fill="none" xmlns="http://www.w3.org/2000/svg">
<mask id="mask0_13_62" style="mask-type:alpha" maskUnits="userSpaceOnUse" x="0" y="0" width="156" height="330">
<rect x="47.3726" width="109.067" height="317" transform="rotate(8.59451 47.3726 0)" fill="#D9D9D9"/>
</mask>
<g mask="url(#mask0_13_62)">
<path d="M228.653 219.793C227.474 233.673 236.896 307.146 241.758 335.954C244.073 349.603 250.42 371.839 248.136 383.646C244.876 400.101 243.933 421.396 245.729 433.796C246.861 441.325 250.424 476.055 245.325 488.757C242.658 495.418 237.768 529.555 237.768 529.555C225.031 561.714 232.22 560.132 232.22 560.132C236.163 564.971 242.917 560.512 242.917 560.512C248.063 563.792 251.626 559.732 251.626 559.732C256.042 563.389 261.191 559.283 261.191 559.283C266.74 562.163 271.885 556.851 271.885 556.851C275.072 558.457 275.852 556.429 275.852 556.429C285.413 555.816 270.516 525.216 270.516 525.216C266.949 497.733 274.057 482.437 274.057 482.437C297.336 413.401 298.519 395.08 289.213 369.063C286.592 361.553 285.929 358.579 287.135 355.318C289.923 347.792 287.891 317.521 291.291 305.502C297.852 282.319 304.323 223.526 307.697 196.094C312.229 159.143 291.64 109.598 291.64 109.598C287.131 89.4357 293.742 17.5999 293.742 17.5999C302.974 31.9655 302.621 57.3234 302.621 57.3234C301.155 83.9182 324.105 124.565 324.105 124.565C335.133 141.361 339.309 157.297 339.309 158.48C339.309 163.319 338.25 175.032 338.25 175.032L338.673 185.234C338.863 187.831 340.325 196.777 340.088 201.1C338.366 227.706 342.593 222.701 342.593 222.701C346.16 222.701 350.08 201.29 350.08 201.29C350.08 206.811 348.731 223.34 351.708 229.575C355.272 237.012 357.893 228.299 357.939 226.551C358.881 192.674 360.917 201.55 360.917 201.55C362.898 229.032 365.333 235.24 369.699 233.092C373.007 231.514 369.982 200.111 369.982 200.111C375.647 218.765 379.943 221.735 379.943 221.735C389.292 228.299 383.511 210.169 382.212 206.578C375.294 187.502 375.081 180.891 375.081 180.891C383.724 198.033 390.238 197.397 390.238 197.397C398.667 194.706 382.871 170.434 373.615 158.806C368.893 152.881 362.802 144.948 361.033 140.237C358.153 132.257 355.977 106.605 355.977 106.605C355.105 76.3341 347.622 63.186 347.622 63.186C334.826 42.7058 332.419 4.50215 332.419 4.50215C332.419 4.50215 332.073 -34.809 331.852 -59.9977C327.366 -103.994 294.948 -104.312 294.948 -104.312C262.18 -109.19 257.62 -119.775 257.62 -119.775C250.68 -129.763 254.646 -148.909 254.646 -148.909C260.404 -153.593 262.626 -166.028 262.626 -166.028C272.188 -173.36 271.718 -184.089 267.302 -183.972C263.758 -183.879 264.561 -186.815 264.561 -186.815C270.54 -235.111 227.664 -237.577 227.664 -237.577H221.119C221.119 -237.577 178.224 -235.111 184.195 -186.826C184.195 -186.826 184.997 -183.887 181.423 -183.984C177.018 -184.1 176.607 -173.372 186.134 -166.04C186.134 -166.04 188.351 -153.609 194.113 -148.921C194.113 -148.921 198.08 -129.775 191.139 -119.787C191.139 -119.787 186.595 -109.201 153.812 -104.324C153.812 -104.324 121.339 -104.006 116.923 -60.0093L116.31 4.49053C116.31 4.49053 113.949 42.6941 101.103 63.1744C101.103 63.1744 93.6546 76.3264 92.7939 106.593C92.7939 106.593 90.6109 132.246 87.7417 140.225C85.993 144.913 79.9055 152.846 75.1441 158.794C65.8075 170.399 50.1158 194.621 58.5103 197.385C58.5103 197.385 65.0591 198.021 73.6669 180.879C73.6669 180.879 73.4885 187.444 66.5829 206.567C65.2258 210.111 59.4525 228.241 68.8047 221.723C68.8047 221.723 73.1357 218.75 78.7656 200.099C78.7656 200.099 75.7451 231.502 79.1068 233.08C83.4998 235.232 85.8961 229.021 87.8774 201.538C87.8774 201.538 89.9091 192.663 90.8513 226.539C90.8978 228.288 93.4608 237 97.0396 229.563C100.06 223.329 98.703 206.827 98.703 201.278C98.703 201.278 102.576 222.689 106.198 222.689C106.198 222.689 110.459 227.695 108.71 201.088C108.427 196.742 109.951 187.82 110.141 185.222L110.552 175.021C110.552 175.021 109.49 163.334 109.49 158.468C109.49 157.262 113.67 141.35 124.693 124.553C124.693 124.553 147.62 83.8872 146.142 57.3118C146.142 57.3118 145.824 31.9538 155.056 17.5882C155.056 17.5882 161.609 89.4202 157.17 109.586C157.17 109.586 136.546 159.131 141.094 196.082C144.444 223.588 150.904 282.303 157.48 305.49C160.915 317.487 158.883 347.749 161.636 355.306C162.877 358.59 162.226 361.615 159.558 369.051C150.303 395.069 151.482 413.393 174.761 482.425C174.761 482.425 181.927 497.722 178.305 525.204C178.305 525.204 163.432 555.805 172.958 556.417C172.958 556.417 173.703 558.445 176.925 556.84C176.925 556.84 182.07 562.152 187.63 559.271C187.63 559.271 192.779 563.381 197.18 559.721C197.18 559.721 200.709 563.78 205.854 560.5C205.854 560.5 212.608 565.056 216.621 560.12C216.621 560.12 223.752 561.702 211.057 529.543C211.057 529.543 206.195 495.45 203.516 488.746C198.405 476.047 202.015 441.244 203.105 433.784C204.861 421.314 203.919 400.07 200.709 383.634C198.359 371.855 204.722 349.614 207.071 335.943C211.899 307.161 221.359 233.685 220.177 219.781L224.085 221.153C226.885 221.161 228.653 219.793 228.653 219.793Z" fill="white"/>
</g>
</svg>
