<svg width="133" height="165" viewBox="0 0 133 165" fill="none" xmlns="http://www.w3.org/2000/svg">
<mask id="mask0_13_67" style="mask-type:alpha" maskUnits="userSpaceOnUse" x="0" y="0" width="133" height="165">
<rect x="22.2896" width="111.4" height="149.152" transform="rotate(8.59451 22.2896 0)" fill="#D9D9D9"/>
</mask>
<g mask="url(#mask0_13_67)">
<path d="M160.435 354.74C159.256 368.62 168.678 442.092 173.54 470.901C175.855 484.55 182.202 506.786 179.918 518.593C176.658 535.048 175.715 556.343 177.511 568.743C178.643 576.272 182.206 611.002 177.107 623.704C174.44 630.365 169.55 664.502 169.55 664.502C156.813 696.661 164.002 695.079 164.002 695.079C167.945 699.918 174.699 695.459 174.699 695.459C179.845 698.739 183.408 694.679 183.408 694.679C187.824 698.336 192.973 694.23 192.973 694.23C198.522 697.11 203.667 691.798 203.667 691.798C206.854 693.404 207.634 691.376 207.634 691.376C217.195 690.763 202.298 660.163 202.298 660.163C198.731 632.68 205.839 617.384 205.839 617.384C229.118 548.348 230.301 530.027 220.995 504.01C218.374 496.5 217.711 493.526 218.917 490.265C221.705 482.739 219.673 452.468 223.073 440.449C229.634 417.266 236.105 358.473 239.478 331.041C244.011 294.09 223.422 244.545 223.422 244.545C218.913 224.383 225.524 152.547 225.524 152.547C234.756 166.912 234.403 192.27 234.403 192.27C232.937 218.865 255.887 259.512 255.887 259.512C266.915 276.308 271.091 292.244 271.091 293.427C271.091 298.266 270.032 309.979 270.032 309.979L270.455 320.181C270.645 322.778 272.106 331.724 271.87 336.047C270.148 362.653 274.375 357.648 274.375 357.648C277.942 357.648 281.862 336.237 281.862 336.237C281.862 341.758 280.513 358.287 283.49 364.522C287.054 371.959 289.675 363.246 289.721 361.498C290.663 327.621 292.699 336.497 292.699 336.497C294.68 363.979 297.115 370.187 301.481 368.039C304.789 366.461 301.764 335.058 301.764 335.058C307.429 353.712 311.725 356.682 311.725 356.682C321.074 363.246 315.293 345.116 313.994 341.525C307.076 322.449 306.863 315.838 306.863 315.838C315.506 332.98 322.02 332.344 322.02 332.344C330.449 329.653 314.653 305.381 305.397 293.753C300.675 287.828 294.584 279.895 292.815 275.184C289.935 267.204 287.759 241.552 287.759 241.552C286.887 211.281 279.404 198.133 279.404 198.133C266.608 177.653 264.201 139.449 264.201 139.449C264.201 139.449 263.855 100.138 263.634 74.9492C259.148 30.9528 226.73 30.6349 226.73 30.6349C193.962 25.7572 189.402 15.172 189.402 15.172C182.462 5.18391 186.428 -13.9625 186.428 -13.9625C192.186 -18.6463 194.408 -31.081 194.408 -31.081C203.97 -38.4131 203.5 -49.1418 199.084 -49.0255C195.54 -48.9324 196.343 -51.8676 196.343 -51.8676C202.322 -100.164 159.446 -102.63 159.446 -102.63H152.901C152.901 -102.63 110.006 -100.164 115.977 -51.8792C115.977 -51.8792 116.779 -48.9401 113.205 -49.0371C108.8 -49.1534 108.389 -38.4247 117.916 -31.0927C117.916 -31.0927 120.133 -18.6619 125.895 -13.9741C125.895 -13.9741 129.862 5.17228 122.921 15.1604C122.921 15.1604 118.377 25.7455 85.5938 30.6233C85.5938 30.6233 53.121 30.9412 48.7047 74.9376L48.092 139.437C48.092 139.437 45.7307 177.641 32.885 198.121C32.885 198.121 25.4366 211.273 24.5758 241.54C24.5758 241.54 22.3929 267.193 19.5236 275.172C17.775 279.86 11.6875 287.793 6.92613 293.741C-2.41055 305.346 -18.1022 329.568 -9.70776 332.332C-9.70776 332.332 -3.1589 332.968 5.44884 315.826C5.44884 315.826 5.27048 322.391 -1.63509 341.514C-2.99217 345.058 -8.76555 363.188 0.58664 356.67C0.58664 356.67 4.91765 353.696 10.5476 335.046C10.5476 335.046 7.5271 366.449 10.8888 368.027C15.2818 370.179 17.678 363.968 19.6594 336.485C19.6594 336.485 21.6911 327.61 22.6333 361.486C22.6798 363.235 25.2428 371.947 28.8216 364.51C31.842 358.276 30.485 341.774 30.485 336.225C30.485 336.225 34.3584 357.636 37.9799 357.636C37.9799 357.636 42.2411 362.642 40.4924 336.035C40.2094 331.689 41.7332 322.767 41.9231 320.169L42.3342 309.968C42.3342 309.968 41.2718 298.281 41.2718 293.415C41.2718 292.209 45.4516 276.297 56.4749 259.5C56.4749 259.5 79.4017 218.834 77.9244 192.259C77.9244 192.259 77.6065 166.901 86.8385 152.535C86.8385 152.535 93.3912 224.367 88.9517 244.533C88.9517 244.533 68.328 294.078 72.8761 331.029C76.2261 358.535 82.6858 417.25 89.2618 440.437C92.6972 452.433 90.6654 482.696 93.4184 490.253C94.6591 493.537 94.0077 496.562 91.3401 503.998C82.0848 530.016 83.2635 548.34 106.543 617.372C106.543 617.372 113.709 632.669 110.087 660.151C110.087 660.151 95.2136 690.751 104.74 691.364C104.74 691.364 105.485 693.392 108.707 691.787C108.707 691.787 113.852 697.099 119.412 694.218C119.412 694.218 124.561 698.328 128.962 694.668C128.962 694.668 132.491 698.727 137.636 695.447C137.636 695.447 144.39 700.003 148.403 695.067C148.403 695.067 155.534 696.649 142.839 664.49C142.839 664.49 137.977 630.396 135.298 623.693C130.187 610.994 133.797 576.191 134.887 568.731C136.643 556.261 135.701 535.017 132.49 518.581C130.141 506.802 136.504 484.561 138.853 470.89C143.681 442.108 153.141 368.632 151.959 354.728L155.867 356.1C158.667 356.108 160.435 354.74 160.435 354.74Z" fill="white"/>
</g>
</svg>
