<svg width="190" height="309" viewBox="0 0 190 309" fill="none" xmlns="http://www.w3.org/2000/svg">
<mask id="mask0_13_87" style="mask-type:alpha" maskUnits="userSpaceOnUse" x="0" y="0" width="190" height="309">
<rect y="1.23352" width="187.825" height="307.529" transform="rotate(-0.376261 0 1.23352)" fill="#D9D9D9"/>
</mask>
<g mask="url(#mask0_13_87)">
<path d="M100.432 -39.2592C99.2532 -25.3783 108.675 48.0938 113.537 76.9026C115.852 90.5509 122.199 112.788 119.916 124.594C116.655 141.05 115.713 162.344 117.508 174.744C118.64 182.274 122.203 217.003 117.105 229.705C114.437 236.367 109.548 270.503 109.548 270.503C96.8105 302.662 103.999 301.08 103.999 301.08C107.942 305.919 114.697 301.46 114.697 301.46C119.842 304.74 123.405 300.681 123.405 300.681C127.822 304.337 132.971 300.231 132.971 300.231C138.519 303.112 143.664 297.8 143.664 297.8C146.852 299.405 147.631 297.377 147.631 297.377C157.193 296.764 142.296 266.164 142.296 266.164C138.729 238.681 145.836 223.385 145.836 223.385C169.115 154.349 170.298 136.028 160.992 110.011C158.371 102.501 157.708 99.527 158.914 96.2661C161.702 88.7402 159.67 58.4696 163.071 46.4498C169.631 23.2671 176.102 -35.5253 179.476 -62.9576C184.008 -99.9089 163.42 -149.454 163.42 -149.454C158.91 -169.616 165.521 -241.452 165.521 -241.452C174.753 -227.086 174.4 -201.728 174.4 -201.728C172.935 -175.134 195.885 -134.487 195.885 -134.487C206.912 -117.69 211.088 -101.754 211.088 -100.572C211.088 -95.7329 210.029 -84.0194 210.029 -84.0194L210.452 -73.8181C210.642 -71.2203 212.104 -62.2752 211.867 -57.952C210.146 -31.3455 214.372 -36.3512 214.372 -36.3512C217.939 -36.3512 221.859 -57.762 221.859 -57.762C221.859 -52.2406 220.51 -35.7114 223.488 -29.4766C227.051 -22.0398 229.672 -30.7523 229.719 -32.501C230.661 -66.3775 232.696 -57.5022 232.696 -57.5022C234.678 -30.0195 237.113 -23.8118 241.479 -25.9599C244.786 -27.538 241.762 -58.9407 241.762 -58.9407C247.427 -40.2867 251.723 -37.3167 251.723 -37.3167C261.071 -30.7523 255.29 -48.8828 253.991 -52.4733C247.074 -71.5499 246.86 -78.1608 246.86 -78.1608C255.503 -61.019 262.017 -61.6548 262.017 -61.6548C270.446 -64.3457 254.65 -88.618 245.395 -100.246C240.672 -106.171 234.581 -114.104 232.813 -118.815C229.932 -126.795 227.757 -152.447 227.757 -152.447C226.884 -182.718 219.401 -195.866 219.401 -195.866C206.606 -216.346 204.198 -254.55 204.198 -254.55C204.198 -254.55 203.853 -293.861 203.632 -319.049C199.146 -363.046 166.727 -363.364 166.727 -363.364C133.959 -368.242 129.4 -378.827 129.4 -378.827C122.459 -388.815 126.426 -407.961 126.426 -407.961C132.184 -412.645 134.405 -425.08 134.405 -425.08C143.967 -432.412 143.498 -443.14 139.081 -443.024C135.538 -442.931 136.34 -445.866 136.34 -445.866C142.319 -494.163 99.4432 -496.629 99.4432 -496.629H92.8982C92.8982 -496.629 50.003 -494.163 55.9742 -445.878C55.9742 -445.878 56.7768 -442.939 53.2018 -443.036C48.7971 -443.152 48.3862 -432.423 57.9128 -425.091C57.9128 -425.091 60.1307 -412.661 65.8924 -407.973C65.8924 -407.973 69.8589 -388.826 62.9185 -378.838C62.9185 -378.838 58.3742 -368.253 25.5912 -363.375C25.5912 -363.375 -6.88172 -363.058 -11.298 -319.061L-11.9106 -254.561C-11.9106 -254.561 -14.2719 -216.358 -27.1176 -195.877C-27.1176 -195.877 -34.5661 -182.725 -35.4268 -152.459C-35.4268 -152.459 -37.6098 -126.806 -40.479 -118.827C-42.2277 -114.139 -48.3152 -106.206 -53.0766 -100.258C-62.4132 -88.6529 -78.1049 -64.431 -69.7104 -61.6665C-69.7104 -61.6665 -63.1616 -61.0306 -54.5538 -78.1724C-54.5538 -78.1724 -54.7322 -71.608 -61.6378 -52.4849C-62.9949 -48.941 -68.7682 -30.8105 -59.416 -37.3283C-59.416 -37.3283 -55.085 -40.3022 -49.4551 -58.9523C-49.4551 -58.9523 -52.4756 -27.5496 -49.1139 -25.9715C-44.7209 -23.8196 -42.3247 -30.0311 -40.3433 -57.5138C-40.3433 -57.5138 -38.3116 -66.3891 -37.3694 -32.5126C-37.3229 -30.7639 -34.7599 -22.0515 -31.1811 -29.4883C-28.1607 -35.7231 -29.5177 -52.2251 -29.5177 -57.7736C-29.5177 -57.7736 -25.6443 -36.3628 -22.0228 -36.3628C-22.0228 -36.3628 -17.7616 -31.3571 -19.5103 -57.9636C-19.7933 -62.3101 -18.2695 -71.2319 -18.0795 -73.8298L-17.6685 -84.0311C-17.6685 -84.0311 -18.7309 -95.7175 -18.7309 -100.584C-18.7309 -101.789 -14.5511 -117.702 -3.52779 -134.499C-3.52779 -134.499 19.399 -175.165 17.9218 -201.74C17.9218 -201.74 17.6038 -227.098 26.8358 -241.464C26.8358 -241.464 33.3885 -169.632 28.949 -149.465C28.949 -149.465 8.32528 -99.9205 12.8734 -62.9693C16.2235 -35.4633 22.6831 23.2516 29.2591 46.4382C32.6945 58.4347 30.6628 88.6975 33.4157 96.2545C34.6564 99.5386 34.005 102.563 31.3374 110C22.0822 136.017 23.2609 154.341 46.5405 223.374C46.5405 223.374 53.7059 238.67 50.0844 266.153C50.0844 266.153 35.2109 296.753 44.7376 297.365C44.7376 297.365 45.482 299.393 48.7041 297.788C48.7041 297.788 53.8493 303.1 59.4095 300.219C59.4095 300.219 64.5586 304.329 68.9594 300.669C68.9594 300.669 72.4878 304.729 77.6331 301.448C77.6331 301.448 84.3874 306.004 88.4005 301.068C88.4005 301.068 95.5309 302.65 82.8365 270.491C82.8365 270.491 77.9743 236.398 75.295 229.694C70.1847 216.995 73.7945 182.192 74.884 174.732C76.6405 162.263 75.6983 141.019 72.4878 124.582C70.1381 112.803 76.5009 90.5625 78.8506 76.8909C83.6779 48.1093 93.1386 -25.3666 91.956 -39.2708L95.8644 -37.8983C98.6639 -37.8905 100.432 -39.2592 100.432 -39.2592Z" fill="white"/>
</g>
</svg>
