<svg width="140" height="169" viewBox="0 0 140 169" fill="none" xmlns="http://www.w3.org/2000/svg">
<mask id="mask0_13_74" style="mask-type:alpha" maskUnits="userSpaceOnUse" x="0" y="0" width="140" height="169">
<rect y="22.8076" width="111.4" height="149.152" transform="rotate(-11.814 0 22.8076)" fill="#D9D9D9"/>
</mask>
<g mask="url(#mask0_13_74)">
<path d="M-17.5654 359.74C-18.7441 373.621 -9.32212 447.093 -4.45992 475.901C-2.14513 489.55 4.20213 511.786 1.91837 523.593C-1.34249 540.048 -2.2847 561.343 -0.489487 573.743C0.642702 581.272 4.20601 616.002 -0.892715 628.704C-3.56034 635.365 -8.44971 669.502 -8.44971 669.502C-21.1868 701.661 -13.9982 700.079 -13.9982 700.079C-10.0549 704.918 -3.30057 700.459 -3.30057 700.459C1.84469 703.739 5.40799 699.679 5.40799 699.679C9.8243 703.336 14.9734 699.23 14.9734 699.23C20.5219 702.11 25.6672 696.798 25.6672 696.798C28.8544 698.404 29.6337 696.376 29.6337 696.376C39.1953 695.763 24.2985 665.163 24.2985 665.163C20.7313 637.68 27.8385 622.384 27.8385 622.384C51.1182 553.348 52.3008 535.027 42.9951 509.01C40.374 501.5 39.711 498.526 40.9168 495.265C43.7046 487.739 41.6729 457.468 45.0733 445.449C51.6338 422.266 58.1052 363.473 61.4785 336.041C66.0111 299.09 45.4223 249.545 45.4223 249.545C40.913 229.383 47.5239 157.547 47.5239 157.547C56.7559 171.912 56.403 197.27 56.403 197.27C54.9374 223.865 77.8875 264.512 77.8875 264.512C88.9147 281.308 93.0906 297.244 93.0906 298.427C93.0906 303.266 92.0321 314.979 92.0321 314.979L92.4547 325.181C92.6447 327.778 94.1065 336.724 93.87 341.047C92.1484 367.653 96.3747 362.648 96.3747 362.648C99.9419 362.648 103.862 341.237 103.862 341.237C103.862 346.758 102.513 363.287 105.49 369.522C109.054 376.959 111.675 368.246 111.721 366.498C112.663 332.621 114.699 341.497 114.699 341.497C116.68 368.979 119.115 375.187 123.481 373.039C126.789 371.461 123.764 340.058 123.764 340.058C129.429 358.712 133.725 361.682 133.725 361.682C143.074 368.246 137.293 350.116 135.994 346.526C129.076 327.449 128.863 320.838 128.863 320.838C137.506 337.98 144.02 337.344 144.02 337.344C152.449 334.653 136.653 310.381 127.397 298.753C122.675 292.828 116.584 284.895 114.815 280.184C111.935 272.204 109.759 246.552 109.759 246.552C108.887 216.281 101.404 203.133 101.404 203.133C88.6083 182.653 86.2005 144.449 86.2005 144.449C86.2005 144.449 85.8555 105.138 85.6344 79.9493C81.1483 35.9529 48.7297 35.635 48.7297 35.635C15.9621 30.7572 11.4024 20.1721 11.4024 20.1721C4.4619 10.184 8.42845 -8.96243 8.42845 -8.96243C14.1863 -13.6463 16.4081 -26.081 16.4081 -26.081C25.9696 -33.4131 25.5005 -44.1417 21.0842 -44.0254C17.5402 -43.9323 18.3428 -46.8675 18.3428 -46.8675C24.3217 -95.1639 -18.5541 -97.6299 -18.5541 -97.6299H-25.0991C-25.0991 -97.6299 -67.9943 -95.1639 -62.0232 -46.8791C-62.0232 -46.8791 -61.2206 -43.9401 -64.7955 -44.037C-69.2002 -44.1533 -69.6111 -33.4247 -60.0845 -26.0926C-60.0845 -26.0926 -57.8666 -13.6618 -52.1049 -8.97407C-52.1049 -8.97407 -48.1384 10.1723 -55.0788 20.1604C-55.0788 20.1604 -59.6231 30.7456 -92.4062 35.6233C-92.4062 35.6233 -124.879 35.9413 -129.295 79.9377L-129.908 144.438C-129.908 144.438 -132.269 182.641 -145.115 203.121C-145.115 203.121 -152.563 216.273 -153.424 246.54C-153.424 246.54 -155.607 272.193 -158.476 280.172C-160.225 284.86 -166.312 292.793 -171.074 298.741C-180.411 310.346 -196.102 334.568 -187.708 337.332C-187.708 337.332 -181.159 337.968 -172.551 320.826C-172.551 320.826 -172.73 327.391 -179.635 346.514C-180.992 350.058 -186.766 368.188 -177.413 361.67C-177.413 361.67 -173.082 358.697 -167.452 340.046C-167.452 340.046 -170.473 371.449 -167.111 373.027C-162.718 375.179 -160.322 368.968 -158.341 341.485C-158.341 341.485 -156.309 332.61 -155.367 366.486C-155.32 368.235 -152.757 376.947 -149.178 369.511C-146.158 363.276 -147.515 346.774 -147.515 341.225C-147.515 341.225 -143.642 362.636 -140.02 362.636C-140.02 362.636 -135.759 367.642 -137.508 341.035C-137.791 336.689 -136.267 327.767 -136.077 325.169L-135.666 314.968C-135.666 314.968 -136.728 303.281 -136.728 298.415C-136.728 297.209 -132.548 281.297 -121.525 264.5C-121.525 264.5 -98.5983 223.834 -100.076 197.259C-100.076 197.259 -100.394 171.901 -91.1615 157.535C-91.1615 157.535 -84.6088 229.367 -89.0483 249.533C-89.0483 249.533 -109.672 299.078 -105.124 336.03C-101.774 363.536 -95.3142 422.25 -88.7382 445.437C-85.3028 457.434 -87.3346 487.696 -84.5816 495.253C-83.3409 498.537 -83.9923 501.562 -86.6599 508.998C-95.9152 535.016 -94.7365 553.34 -71.4568 622.372C-71.4568 622.372 -64.2914 637.669 -67.9129 665.151C-67.9129 665.151 -82.7864 695.752 -73.2597 696.364C-73.2597 696.364 -72.5153 698.392 -69.2932 696.787C-69.2932 696.787 -64.148 702.099 -58.5878 699.218C-58.5878 699.218 -53.4387 703.328 -49.0379 699.668C-49.0379 699.668 -45.5095 703.727 -40.3642 700.447C-40.3642 700.447 -33.6099 705.003 -29.5968 700.067C-29.5968 700.067 -22.4664 701.649 -35.1608 669.49C-35.1608 669.49 -40.023 635.397 -42.7023 628.693C-47.8127 615.994 -44.2028 581.191 -43.1133 573.731C-41.3568 561.261 -42.2991 540.017 -45.5095 523.581C-47.8592 511.802 -41.4964 489.561 -39.1468 475.89C-34.3194 447.108 -24.8587 373.632 -26.0413 359.728L-22.1329 361.1C-19.3335 361.108 -17.5654 359.74 -17.5654 359.74Z" fill="white"/>
</g>
</svg>
