<svg width="174" height="333" viewBox="0 0 174 333" fill="none" xmlns="http://www.w3.org/2000/svg">
<mask id="mask0_13_63" style="mask-type:alpha" maskUnits="userSpaceOnUse" x="0" y="0" width="174" height="333">
<rect y="22.5471" width="111.4" height="317" transform="rotate(-11.6772 0 22.5471)" fill="#D9D9D9"/>
</mask>
<g mask="url(#mask0_13_63)">
<path d="M-63.9865 221.741C-65.1652 235.622 -55.7433 309.094 -50.8811 337.903C-48.5663 351.551 -42.219 373.788 -44.5028 385.594C-47.7636 402.05 -48.7058 423.344 -46.9106 435.744C-45.7784 443.274 -42.2151 478.003 -47.3139 490.706C-49.9815 497.367 -54.8708 531.503 -54.8708 531.503C-67.608 563.662 -60.4194 562.08 -60.4194 562.08C-56.4761 566.919 -49.7217 562.46 -49.7217 562.46C-44.5765 565.74 -41.0132 561.681 -41.0132 561.681C-36.5968 565.337 -31.4477 561.231 -31.4477 561.231C-25.8992 564.112 -20.754 558.8 -20.754 558.8C-17.5668 560.405 -16.7874 558.377 -16.7874 558.377C-7.22585 557.765 -22.1227 527.164 -22.1227 527.164C-25.6899 499.682 -18.5826 484.386 -18.5826 484.386C4.69702 415.349 5.87962 397.029 -3.42604 371.012C-6.04714 363.501 -6.71018 360.527 -5.50432 357.266C-2.7165 349.74 -4.74824 319.47 -1.34779 307.45C5.2127 284.267 11.684 225.475 15.0573 198.043C19.59 161.091 -0.99881 111.546 -0.99881 111.546C-5.50818 91.3842 1.10272 19.5483 1.10272 19.5483C10.3347 33.914 9.98187 59.2719 9.98187 59.2719C8.51623 85.8667 31.4663 126.513 31.4663 126.513C42.4935 143.31 46.6694 159.246 46.6694 160.428C46.6694 165.267 45.611 176.981 45.611 176.981L46.0336 187.182C46.2236 189.78 47.6853 198.725 47.4488 203.048C45.7273 229.655 49.9536 224.649 49.9536 224.649C53.5208 224.649 57.4408 203.238 57.4408 203.238C57.4408 208.76 56.0914 225.289 59.0692 231.524C62.6325 238.96 65.2536 230.248 65.3001 228.499C66.2423 194.623 68.278 203.498 68.278 203.498C70.2593 230.981 72.6943 237.188 77.0602 235.04C80.3676 233.462 77.3432 202.06 77.3432 202.06C83.0081 220.714 87.3041 223.684 87.3041 223.684C96.6525 230.248 90.8714 212.117 89.5724 208.527C82.6552 189.45 82.442 182.839 82.442 182.839C91.0846 199.981 97.5985 199.345 97.5985 199.345C106.028 196.655 90.2315 172.382 80.9763 160.754C76.2537 154.829 70.1624 146.896 68.3943 142.185C65.5134 134.206 63.3382 108.553 63.3382 108.553C62.4658 78.2826 54.9825 65.1345 54.9825 65.1345C42.1872 44.6543 39.7794 6.45064 39.7794 6.45064C39.7794 6.45064 39.4343 -32.8605 39.2133 -58.0492C34.7272 -102.046 2.30856 -102.364 2.30856 -102.364C-30.459 -107.241 -35.0188 -117.826 -35.0188 -117.826C-41.9592 -127.815 -37.9927 -146.961 -37.9927 -146.961C-32.2348 -151.645 -30.0131 -164.08 -30.0131 -164.08C-20.4515 -171.412 -20.9207 -182.14 -25.337 -182.024C-28.8809 -181.931 -28.0783 -184.866 -28.0783 -184.866C-22.0994 -233.162 -64.9752 -235.628 -64.9752 -235.628H-71.5202C-71.5202 -235.628 -114.415 -233.162 -108.444 -184.878C-108.444 -184.878 -107.642 -181.939 -111.217 -182.036C-115.621 -182.152 -116.032 -171.423 -106.506 -164.091C-106.506 -164.091 -104.288 -151.66 -98.526 -146.973C-98.526 -146.973 -94.5595 -127.826 -101.5 -117.838C-101.5 -117.838 -106.044 -107.253 -138.827 -102.375C-138.827 -102.375 -171.3 -102.057 -175.716 -58.0609L-176.329 6.43901C-176.329 6.43901 -178.69 44.6426 -191.536 65.1228C-191.536 65.1228 -198.985 78.2748 -199.845 108.542C-199.845 108.542 -202.028 134.194 -204.897 142.174C-206.646 146.861 -212.734 154.795 -217.495 160.742C-226.832 172.347 -242.523 196.569 -234.129 199.334C-234.129 199.334 -227.58 199.97 -218.972 182.828C-218.972 182.828 -219.151 189.392 -226.056 208.515C-227.413 212.059 -233.187 230.19 -223.835 223.672C-223.835 223.672 -219.503 220.698 -213.874 202.048C-213.874 202.048 -216.894 233.451 -213.532 235.029C-209.139 237.181 -206.743 230.969 -204.762 203.486C-204.762 203.486 -202.73 194.611 -201.788 228.488C-201.741 230.236 -199.178 238.949 -195.6 231.512C-192.579 225.277 -193.936 208.775 -193.936 203.227C-193.936 203.227 -190.063 224.637 -186.441 224.637C-186.441 224.637 -182.18 229.643 -183.929 203.037C-184.212 198.69 -182.688 189.768 -182.498 187.17L-182.087 176.969C-182.087 176.969 -183.149 165.283 -183.149 160.417C-183.149 159.211 -178.97 143.298 -167.946 126.501C-167.946 126.501 -145.019 85.8357 -146.497 59.2603C-146.497 59.2603 -146.815 33.9023 -137.583 19.5367C-137.583 19.5367 -131.03 91.3687 -135.469 111.535C-135.469 111.535 -156.093 161.08 -151.545 198.031C-148.195 225.537 -141.735 284.252 -135.159 307.438C-131.724 319.435 -133.756 349.698 -131.003 357.255C-129.762 360.539 -130.413 363.563 -133.081 371C-142.336 397.017 -141.158 415.341 -117.878 484.374C-117.878 484.374 -110.713 499.67 -114.334 527.153C-114.334 527.153 -129.208 557.753 -119.681 558.366C-119.681 558.366 -118.936 560.394 -115.714 558.788C-115.714 558.788 -110.569 564.1 -105.009 561.219C-105.009 561.219 -99.8598 565.329 -95.459 561.669C-95.459 561.669 -91.9306 565.729 -86.7854 562.448C-86.7854 562.448 -80.031 567.004 -76.0179 562.068C-76.0179 562.068 -68.8875 563.65 -81.582 531.492C-81.582 531.492 -86.4442 497.398 -89.1234 490.694C-94.2338 477.996 -90.624 443.192 -89.5344 435.732C-87.778 423.263 -88.7202 402.019 -91.9306 385.583C-94.2803 373.803 -87.9176 351.563 -85.5679 337.891C-80.7406 309.11 -71.2798 235.634 -72.4624 221.729L-68.554 223.102C-65.7546 223.11 -63.9865 221.741 -63.9865 221.741Z" fill="white"/>
</g>
</svg>
