<svg width="151" height="227" viewBox="0 0 151 227" fill="none" xmlns="http://www.w3.org/2000/svg">
<mask id="mask0_13_78" style="mask-type:alpha" maskUnits="userSpaceOnUse" x="0" y="0" width="151" height="227">
<rect x="0.0012207" y="1.21521" width="148.893" height="225.286" transform="rotate(-0.376261 0.0012207 1.21521)" fill="#D9D9D9"/>
</mask>
<g mask="url(#mask0_13_78)">
<path d="M79.4319 336.74C78.2532 350.621 87.6752 424.093 92.5374 452.901C94.8522 466.55 101.199 488.786 98.9157 500.593C95.6548 517.048 94.7126 538.343 96.5078 550.743C97.64 558.272 101.203 593.002 96.1046 605.704C93.437 612.366 88.5476 646.502 88.5476 646.502C75.8105 678.661 82.9991 677.079 82.9991 677.079C86.9424 681.918 93.6967 677.459 93.6967 677.459C98.842 680.739 102.405 676.679 102.405 676.679C106.822 680.336 111.971 676.23 111.971 676.23C117.519 679.111 122.664 673.799 122.664 673.799C125.852 675.404 126.631 673.376 126.631 673.376C136.193 672.763 121.296 642.163 121.296 642.163C117.729 614.68 124.836 599.384 124.836 599.384C148.115 530.348 149.298 512.027 139.992 486.01C137.371 478.5 136.708 475.526 137.914 472.265C140.702 464.739 138.67 434.468 142.071 422.449C148.631 399.266 155.102 340.474 158.476 313.041C163.008 276.09 142.42 226.545 142.42 226.545C137.91 206.383 144.521 134.547 144.521 134.547C153.753 148.913 153.4 174.27 153.4 174.27C151.935 200.865 174.885 241.512 174.885 241.512C185.912 258.308 190.088 274.244 190.088 275.427C190.088 280.266 189.029 291.979 189.029 291.979L189.452 302.181C189.642 304.779 191.104 313.724 190.867 318.047C189.146 344.653 193.372 339.648 193.372 339.648C196.939 339.648 200.859 318.237 200.859 318.237C200.859 323.758 199.51 340.287 202.488 346.522C206.051 353.959 208.672 345.247 208.719 343.498C209.661 309.621 211.696 318.497 211.696 318.497C213.678 345.979 216.113 352.187 220.479 350.039C223.786 348.461 220.762 317.058 220.762 317.058C226.427 335.712 230.723 338.682 230.723 338.682C240.071 345.247 234.29 327.116 232.991 323.526C226.074 304.449 225.86 297.838 225.86 297.838C234.503 314.98 241.017 314.344 241.017 314.344C249.446 311.653 233.65 287.381 224.395 275.753C219.672 269.828 213.581 261.895 211.813 257.184C208.932 249.204 206.757 223.552 206.757 223.552C205.884 193.281 198.401 180.133 198.401 180.133C185.606 159.653 183.198 121.449 183.198 121.449C183.198 121.449 182.853 82.1381 182.632 56.9494C178.146 12.953 145.727 12.635 145.727 12.635C112.959 7.7573 108.4 -2.82789 108.4 -2.82789C101.459 -12.816 105.426 -31.9624 105.426 -31.9624C111.184 -36.6462 113.405 -49.0809 113.405 -49.0809C122.967 -56.413 122.498 -67.1416 118.081 -67.0253C114.538 -66.9323 115.34 -69.8674 115.34 -69.8674C121.319 -118.164 78.4432 -120.63 78.4432 -120.63H71.8982C71.8982 -120.63 29.003 -118.164 34.9742 -69.8791C34.9742 -69.8791 35.7768 -66.94 32.2018 -67.037C27.7971 -67.1533 27.3862 -56.4246 36.9128 -49.0925C36.9128 -49.0925 39.1307 -36.6617 44.8924 -31.974C44.8924 -31.974 48.8589 -12.8276 41.9185 -2.83952C41.9185 -2.83952 37.3742 7.74567 4.59116 12.6234C4.59116 12.6234 -27.8817 12.9413 -32.298 56.9377L-32.9106 121.438C-32.9106 121.438 -35.2719 159.641 -48.1176 180.121C-48.1176 180.121 -55.5661 193.273 -56.4268 223.54C-56.4268 223.54 -58.6098 249.193 -61.479 257.172C-63.2277 261.86 -69.3152 269.793 -74.0766 275.741C-83.4132 287.346 -99.1049 311.568 -90.7104 314.332C-90.7104 314.332 -84.1616 314.968 -75.5538 297.826C-75.5538 297.826 -75.7322 304.391 -82.6378 323.514C-83.9949 327.058 -89.7682 345.188 -80.416 338.671C-80.416 338.671 -76.085 335.697 -70.4551 317.047C-70.4551 317.047 -73.4756 348.449 -70.1139 350.027C-65.7209 352.179 -63.3247 345.968 -61.3433 318.485C-61.3433 318.485 -59.3116 309.61 -58.3694 343.486C-58.3229 345.235 -55.7599 353.947 -52.1811 346.511C-49.1607 340.276 -50.5177 323.774 -50.5177 318.225C-50.5177 318.225 -46.6443 339.636 -43.0228 339.636C-43.0228 339.636 -38.7616 344.642 -40.5103 318.035C-40.7933 313.689 -39.2695 304.767 -39.0795 302.169L-38.6685 291.968C-38.6685 291.968 -39.7309 280.281 -39.7309 275.415C-39.7309 274.209 -35.5511 258.297 -24.5278 241.5C-24.5278 241.5 -1.60097 200.834 -3.07825 174.259C-3.07825 174.259 -3.39621 148.901 5.83578 134.535C5.83578 134.535 12.3885 206.367 7.94897 226.533C7.94897 226.533 -12.6747 276.078 -8.12658 313.03C-4.77654 340.536 1.68313 399.25 8.25913 422.437C11.6945 434.434 9.66276 464.696 12.4157 472.253C13.6564 475.537 13.005 478.562 10.3374 485.999C1.08215 512.016 2.26086 530.34 25.5405 599.373C25.5405 599.373 32.7059 614.669 29.0844 642.151C29.0844 642.151 14.2109 672.752 23.7376 673.364C23.7376 673.364 24.482 675.392 27.7041 673.787C27.7041 673.787 32.8493 679.099 38.4095 676.218C38.4095 676.218 43.5586 680.328 47.9594 676.668C47.9594 676.668 51.4878 680.727 56.6331 677.447C56.6331 677.447 63.3874 682.003 67.4005 677.067C67.4005 677.067 74.5309 678.649 61.8365 646.49C61.8365 646.49 56.9743 612.397 54.295 605.693C49.1847 592.994 52.7945 558.191 53.884 550.731C55.6405 538.261 54.6983 517.017 51.4878 500.581C49.1381 488.802 55.5009 466.561 57.8506 452.89C62.6779 424.108 72.1386 350.632 70.956 336.728L74.8644 338.101C77.6639 338.108 79.4319 336.74 79.4319 336.74Z" fill="white"/>
</g>
</svg>
