<svg width="190" height="140" viewBox="0 0 190 140" fill="none" xmlns="http://www.w3.org/2000/svg">
<mask id="mask0_13_83" style="mask-type:alpha" maskUnits="userSpaceOnUse" x="0" y="0" width="190" height="140">
<rect x="0.339355" y="1.52539" width="187.825" height="138.06" transform="rotate(-0.376261 0.339355 1.52539)" fill="#D9D9D9"/>
</mask>
<g mask="url(#mask0_13_83)">
<path d="M99.4319 104.739C98.2532 118.62 107.675 192.092 112.537 220.901C114.852 234.549 121.199 256.786 118.916 268.593C115.655 285.048 114.713 306.343 116.508 318.742C117.64 326.272 121.203 361.002 116.105 373.704C113.437 380.365 108.548 414.502 108.548 414.502C95.8105 446.66 102.999 445.078 102.999 445.078C106.942 449.917 113.697 445.458 113.697 445.458C118.842 448.739 122.405 444.679 122.405 444.679C126.822 448.335 131.971 444.229 131.971 444.229C137.519 447.11 142.664 441.798 142.664 441.798C145.852 443.403 146.631 441.376 146.631 441.376C156.193 440.763 141.296 410.163 141.296 410.163C137.729 382.68 144.836 367.384 144.836 367.384C168.115 298.347 169.298 280.027 159.992 254.01C157.371 246.499 156.708 243.526 157.914 240.265C160.702 232.739 158.67 202.468 162.071 190.448C168.631 167.266 175.102 108.473 178.476 81.0409C183.008 44.0897 162.42 -5.45525 162.42 -5.45525C157.91 -25.6175 164.521 -97.4534 164.521 -97.4534C173.753 -83.0878 173.4 -57.7298 173.4 -57.7298C171.935 -31.135 194.885 9.51136 194.885 9.51136C205.912 26.3081 210.088 42.244 210.088 43.4266C210.088 48.2656 209.029 59.9791 209.029 59.9791L209.452 70.1804C209.642 72.7782 211.104 81.7233 210.867 86.0466C209.146 112.653 213.372 107.647 213.372 107.647C216.939 107.647 220.859 86.2365 220.859 86.2365C220.859 91.7579 219.51 108.287 222.488 114.522C226.051 121.959 228.672 113.246 228.719 111.498C229.661 77.6211 231.696 86.4963 231.696 86.4963C233.678 113.979 236.113 120.187 240.479 118.039C243.786 116.461 240.762 85.0579 240.762 85.0579C246.427 103.712 250.723 106.682 250.723 106.682C260.071 113.246 254.29 95.1157 252.991 91.5253C246.074 72.4487 245.86 65.8378 245.86 65.8378C254.503 82.9796 261.017 82.3437 261.017 82.3437C269.446 79.6528 253.65 55.3806 244.395 43.7524C239.672 37.8278 233.581 29.8946 231.813 25.1836C228.932 17.204 226.757 -8.4486 226.757 -8.4486C225.884 -38.7191 218.401 -51.8672 218.401 -51.8672C205.606 -72.3474 203.198 -110.551 203.198 -110.551C203.198 -110.551 202.853 -149.862 202.632 -175.051C198.146 -219.047 165.727 -219.365 165.727 -219.365C132.959 -224.243 128.4 -234.828 128.4 -234.828C121.459 -244.816 125.426 -263.963 125.426 -263.963C131.184 -268.647 133.405 -281.081 133.405 -281.081C142.967 -288.413 142.498 -299.142 138.081 -299.026C134.538 -298.933 135.34 -301.868 135.34 -301.868C141.319 -350.164 98.4432 -352.63 98.4432 -352.63H91.8982C91.8982 -352.63 49.003 -350.164 54.9742 -301.879C54.9742 -301.879 55.7768 -298.94 52.2018 -299.037C47.7971 -299.154 47.3862 -288.425 56.9128 -281.093C56.9128 -281.093 59.1307 -268.662 64.8924 -263.974C64.8924 -263.974 68.8589 -244.828 61.9185 -234.84C61.9185 -234.84 57.3742 -224.255 24.5912 -219.377C24.5912 -219.377 -7.88172 -219.059 -12.298 -175.063L-12.9106 -110.563C-12.9106 -110.563 -15.2719 -72.3591 -28.1176 -51.8789C-28.1176 -51.8789 -35.5661 -38.7269 -36.4268 -8.4602C-36.4268 -8.4602 -38.6098 17.1924 -41.479 25.172C-43.2277 29.8597 -49.3152 37.7928 -54.0766 43.7407C-63.4132 55.3456 -79.1049 79.5675 -70.7104 82.3321C-70.7104 82.3321 -64.1616 82.9679 -55.5538 65.8261C-55.5538 65.8261 -55.7322 72.3905 -62.6378 91.5136C-63.9949 95.0576 -69.7682 113.188 -60.416 106.67C-60.416 106.67 -56.085 103.696 -50.4551 85.0462C-50.4551 85.0462 -53.4756 116.449 -50.1139 118.027C-45.7209 120.179 -43.3247 113.967 -41.3433 86.4847C-41.3433 86.4847 -39.3116 77.6094 -38.3694 111.486C-38.3229 113.235 -35.7599 121.947 -32.1811 114.51C-29.1607 108.275 -30.5177 91.7734 -30.5177 86.2249C-30.5177 86.2249 -26.6443 107.636 -23.0228 107.636C-23.0228 107.636 -18.7616 112.641 -20.5103 86.0349C-20.7933 81.6884 -19.2695 72.7666 -19.0795 70.1688L-18.6685 59.9675C-18.6685 59.9675 -19.7309 48.2811 -19.7309 43.415C-19.7309 42.2091 -15.5511 26.2965 -4.52779 9.49973C-4.52779 9.49973 18.399 -31.166 16.9218 -57.7414C16.9218 -57.7414 16.6038 -83.0994 25.8358 -97.465C25.8358 -97.465 32.3885 -25.633 27.949 -5.46688C27.949 -5.46688 7.32528 44.078 11.8734 81.0293C15.2235 108.535 21.6831 167.25 28.2591 190.437C31.6945 202.433 29.6628 232.696 32.4157 240.253C33.6564 243.537 33.005 246.561 30.3374 253.998C21.0822 280.015 22.2609 298.34 45.5405 367.372C45.5405 367.372 52.7059 382.668 49.0844 410.151C49.0844 410.151 34.2109 440.751 43.7376 441.364C43.7376 441.364 44.482 443.392 47.7041 441.787C47.7041 441.787 52.8493 447.099 58.4095 444.218C58.4095 444.218 63.5586 448.328 67.9594 444.667C67.9594 444.667 71.4878 448.727 76.6331 445.447C76.6331 445.447 83.3874 450.003 87.4005 445.067C87.4005 445.067 94.5309 446.649 81.8365 414.49C81.8365 414.49 76.9743 380.396 74.295 373.692C69.1847 360.994 72.7945 326.191 73.884 318.731C75.6405 306.261 74.6983 285.017 71.4878 268.581C69.1381 256.802 75.5009 234.561 77.8506 220.889C82.6779 192.108 92.1386 118.632 90.956 104.728L94.8644 106.1C97.6639 106.108 99.4319 104.739 99.4319 104.739Z" fill="white"/>
</g>
</svg>
